<svg xmlns="http://www.w3.org/2000/svg" fill="none" viewBox="0 0 14 14" id="Blogger-Logo--Streamline-Core.svg" height="14" width="14"><desc>Blogger Logo Streamline Icon: https://streamlinehq.com</desc><g id="blogger"><path id="Subtract" fill="#1d4ed8" fill-rule="evenodd" d="M4.42076 0.5C2.25107 0.5 0.492188 2.25888 0.492188 4.42857v5.14286C0.492188 11.7411 2.25107 13.5 4.42076 13.5h5.14286c2.16968 0 3.92858 -1.7589 3.92858 -3.92857V6.69874c0 -1.05654 -0.8565 -1.91303 -1.913 -1.91303 -0.4353 0 -0.81 -0.30719 -0.8953 -0.73396l-0.0788 -0.39363C10.2379 1.82181 8.62554 0.5 6.75286 0.5h-2.3321Zm-0.55797 4.30176c0 -0.41422 0.33579 -0.75 0.75 -0.75h2.12835c0.41421 0 0.75 0.33578 0.75 0.75 0 0.41421 -0.33579 0.75 -0.75 0.75H4.61279c-0.41421 0 -0.75 -0.33579 -0.75 -0.75Zm0.75 3.63135c-0.41421 0 -0.75 0.33578 -0.75 0.75 0 0.41421 0.33579 0.75 0.75 0.75h3.88058c0.41422 0 0.75 -0.33579 0.75 -0.75 0 -0.41422 -0.33578 -0.75 -0.75 -0.75H4.61279Z" clip-rule="evenodd" stroke-width="1"></path></g></svg>