<svg xmlns="http://www.w3.org/2000/svg" fill="none" viewBox="0 0 48 48" id="Blogger-Logo--Streamline-Plump.svg" height="48" width="48"><desc>Blogger Logo Streamline Icon: https://streamlinehq.com</desc><g id="blogger-logo"><path id="Union" fill="#8fbffa" fill-rule="evenodd" d="M20.1544 1.54102c-3.6038 0 -6.4652 0.0648 -8.7328 0.16315 -5.52756 0.23975 -9.20135 4.28133 -9.52694 9.75123 -0.19695 3.3088 -0.3556 7.5301 -0.3556 12.5437 0 3.6321 0.08327 6.8484 0.20404 9.6032 0.30825 7.031 5.60117 12.4234 12.6465 12.6888 2.6521 0.0999 5.833 0.166 9.6075 0.166 3.6343 0 6.7182 -0.0613 9.3097 -0.155 7.1906 -0.2601 12.6955 -5.8242 13.0503 -12.9984 0.3407 -6.886 -0.007 -10.8334 -0.2577 -12.6287 -0.1244 -0.8906 -0.648 -1.6745 -1.4557 -2.1025 -2.0933 -1.1091 -4.2186 -1.4761 -5.4003 -1.5986 -0.3021 -0.0313 -0.5262 -0.2658 -0.5461 -0.5239l-0.332 -4.3171c-0.447 -5.81072 -4.2473 -10.22978 -10.1608 -10.4566 -2.1518 -0.08254 -4.7987 -0.13528 -8.0501 -0.13528Z" clip-rule="evenodd" stroke-width="1"></path><path id="Union_2" fill="#2859c5" fill-rule="evenodd" d="M20.5 12.5c-1.5208 0 -2.906 0.0727 -4.0572 0.166C14.7489 12.8034 13.5 14.2526 13.5 16s1.2489 3.1966 2.9428 3.334c1.1512 0.0933 2.5364 0.166 4.0572 0.166s2.906 -0.0727 4.0572 -0.166C26.2511 19.1966 27.5 17.7474 27.5 16s-1.2489 -3.1966 -2.9428 -3.334c-1.1512 -0.0933 -2.5364 -0.166 -4.0572 -0.166Zm3.5 16c-3.3078 0 -5.7976 0.1058 -7.5577 0.2258C14.7488 28.8412 13.5 30.2599 13.5 32s1.2488 3.1588 2.9423 3.2742c1.7601 0.12 4.2499 0.2258 7.5577 0.2258 3.3078 0 5.7976 -0.1058 7.5577 -0.2258C33.2512 35.1588 34.5 33.7401 34.5 32s-1.2488 -3.1588 -2.9423 -3.2742C29.7976 28.6058 27.3078 28.5 24 28.5Z" clip-rule="evenodd" stroke-width="1"></path></g></svg>