<svg xmlns="http://www.w3.org/2000/svg" viewBox="0 0 128 128" id="Content-Typewriter--Streamline-Freehand.svg" height="128" width="128"><desc>Content Typewriter Streamline Icon: https://streamlinehq.com</desc><g><path d="M35.733333333333334 92.85333333333332c-0.37333333333333335 1.4933333333333334 18.4 2.5066666666666664 19.786666666666665 2.5599999999999996 9.546666666666667 0.42666666666666664 14.559999999999999 0 29.173333333333332 -0.6933333333333334 2.0266666666666664 -0.31999999999999995 5.706666666666667 0.7466666666666667 5.76 -1.92s-3.6799999999999997 -1.76 -5.76 -2.1866666666666665a194.98666666666668 194.98666666666668 0 0 0 -34.773333333333326 -0.5866666666666667c-8.373333333333333 0.6399999999999999 -15.253333333333332 0.31999999999999995 -14.186666666666667 2.8266666666666667Z" fill="#1d4ed8" fill-rule="evenodd" stroke-width="1"></path><path d="M35.519999999999996 79.36c1.0133333333333332 -3.52 -1.92 -7.093333333333334 -7.1466666666666665 -5.653333333333333 -3.0399999999999996 0.8533333333333333 -2.7199999999999998 6.186666666666666 -0.48 7.84a4.96 4.96 0 0 0 7.626666666666666 -2.1866666666666665Z" fill="#1d4ed8" fill-rule="evenodd" stroke-width="1"></path><path d="M27.46666666666667 96c1.0133333333333332 -3.52 -1.92 -7.04 -7.2 -5.6 -3.0399999999999996 0.7999999999999999 -2.7199999999999998 6.186666666666666 -0.48 7.786666666666666A4.96 4.96 0 0 0 27.46666666666667 96Z" fill="#1d4ed8" fill-rule="evenodd" stroke-width="1"></path><path d="M76.96 79.36c1.0133333333333332 -3.52 -1.92 -7.093333333333334 -7.2 -5.653333333333333 -3.0399999999999996 0.8533333333333333 -2.7199999999999998 6.186666666666666 -0.48 7.84a5.013333333333333 5.013333333333333 0 0 0 7.68 -2.1866666666666665Z" fill="#1d4ed8" fill-rule="evenodd" stroke-width="1"></path><path d="M58.08 79.09333333333333c1.0133333333333332 -3.52 -1.92 -7.04 -7.2 -5.653333333333333 -3.0399999999999996 0.8533333333333333 -2.7199999999999998 6.239999999999999 -0.48 7.84a5.013333333333333 5.013333333333333 0 0 0 7.68 -2.1866666666666665Z" fill="#1d4ed8" fill-rule="evenodd" stroke-width="1"></path><path d="M99.46666666666665 79.09333333333333c1.0133333333333332 -3.52 -1.92 -7.04 -7.2 -5.653333333333333 -2.986666666666667 0.8533333333333333 -2.6666666666666665 6.239999999999999 -0.48 7.84a4.96 4.96 0 0 0 7.68 -2.1866666666666665Z" fill="#1d4ed8" fill-rule="evenodd" stroke-width="1"></path><path d="M100.79999999999998 97.6a4.96 4.96 0 0 0 7.68 -2.1866666666666665c1.0133333333333332 -3.52 -1.92 -7.04 -7.2 -5.653333333333333 -2.986666666666667 0.9066666666666667 -2.7199999999999998 6.239999999999999 -0.48 7.84Z" fill="#1d4ed8" fill-rule="evenodd" stroke-width="1"></path><g><path d="M28 40.8c-0.6933333333333334 -5.333333333333333 -1.76 -12.106666666666666 -2.0266666666666664 -18.133333333333333 5.92 2.4 15.573333333333332 5.333333333333333 20.53333333333333 1.9733333333333332 3.093333333333333 -2.1333333333333333 2.3466666666666667 -6.186666666666666 0.5333333333333333 -17.759999999999998 13.973333333333333 -0.5333333333333333 27.839999999999996 -1.2266666666666666 38.72 -0.6933333333333334a27.146666666666665 27.146666666666665 0 0 1 6.88 0.42666666666666664c3.52 2.6666666666666665 3.52 23.146666666666665 3.5733333333333333 34.346666666666664 0 4.586666666666666 3.733333333333333 4.533333333333333 3.84 0 0.31999999999999995 -10.666666666666666 0.48 -17.493333333333332 0 -22.77333333333333A30.986666666666665 30.986666666666665 0 0 0 98.29333333333332 5.333333333333333a7.2 7.2 0 0 0 -5.92 -4.4799999999999995C80 -1.3866666666666667 43.78666666666667 1.3866666666666667 41.22666666666667 1.5466666666666664 35.093333333333334 2.1866666666666665 23.46666666666667 10.026666666666666 21.92 17.066666666666666c-1.0133333333333332 4.373333333333333 1.9733333333333332 18.773333333333333 2.9333333333333336 24.21333333333333a1.5999999999999999 1.5999999999999999 0 0 0 3.1466666666666665 -0.48Zm13.653333333333332 -33.70666666666666h1.3333333333333333a88.42666666666665 88.42666666666665 0 0 1 0 12.693333333333332 33.81333333333333 33.81333333333333 0 0 1 -17.013333333333332 -0.7466666666666667C26.666666666666664 13.76 37.33333333333333 7.306666666666667 41.65333333333333 7.093333333333334Z" fill="#1d4ed8" fill-rule="evenodd" stroke-width="1"></path><path d="M126.93333333333334 113.97333333333333a82.02666666666667 82.02666666666667 0 0 0 -6.346666666666666 -17.386666666666663c-5.653333333333333 -9.76 -6.773333333333333 -19.68 -15.093333333333334 -26.666666666666664L106.66666666666666 69.33333333333333c3.6799999999999997 5.333333333333333 16.479999999999997 6.186666666666666 18.56 -0.48a9.76 9.76 0 0 0 0 -4.4799999999999995 34.986666666666665 34.986666666666665 0 0 1 0.31999999999999995 -6.239999999999999 36.16 36.16 0 0 0 -1.5999999999999999 -9.066666666666666c-1.6533333333333333 -4.053333333333333 -4.906666666666666 -6.239999999999999 -11.413333333333334 -5.653333333333333 -4.213333333333333 0.37333333333333335 -8.533333333333333 1.4933333333333334 -8.64 5.706666666666667a482.7733333333333 482.7733333333333 0 0 0 -50.56 0c-3.5733333333333333 0 -7.413333333333332 -0.31999999999999995 -11.146666666666665 -0.37333333333333335s-8.586666666666666 0.7999999999999999 -19.68 1.1733333333333333c0.5333333333333333 -4.906666666666666 -3.3066666666666666 -6.346666666666666 -8.266666666666666 -6.826666666666666A9.44 9.44 0 0 0 2.88 48.693333333333335 69.33333333333333 69.33333333333333 0 0 0 1.8666666666666665 69.33333333333333a4.426666666666666 4.426666666666666 0 0 0 2.9333333333333336 2.453333333333333 16 16 0 0 0 13.066666666666666 -1.76 7.626666666666666 7.626666666666666 0 0 0 2.5066666666666664 1.0666666666666667c-10.346666666666666 12.96 -14.026666666666666 26.133333333333333 -18.4 41.44 -1.5999999999999999 5.333333333333333 -2.7199999999999998 12.479999999999999 2.7199999999999998 14.026666666666666 7.68 2.1866666666666665 27.57333333333333 0.7999999999999999 41.65333333333333 0.6933333333333334 11.733333333333334 0 28.319999999999997 1.1199999999999999 41.65333333333333 0.6399999999999999 30.346666666666668 -1.2799999999999998 41.70666666666666 4.4799999999999995 38.93333333333333 -13.919999999999998ZM107.03999999999999 48.8c0.48 -1.5466666666666664 7.946666666666666 -1.3866666666666667 9.973333333333333 0s1.8133333333333335 5.866666666666667 2.1866666666666665 8.053333333333333c2.2399999999999998 11.573333333333332 0 12.32 -5.333333333333333 11.786666666666665a10.933333333333332 10.933333333333332 0 0 1 -3.786666666666666 -0.96c-0.96 -0.48 -0.9066666666666667 0 -1.0666666666666667 -1.0133333333333332 3.6799999999999997 -4.8533333333333335 3.1466666666666665 -14.826666666666664 -2.2399999999999998 -16.799999999999997a4.373333333333333 4.373333333333333 0 0 1 0.26666666666666666 -1.0666666666666667ZM16.64 58.18666666666667A20.799999999999997 20.799999999999997 0 0 0 16 66.88a10.666666666666666 10.666666666666666 0 0 1 -9.28 0C8.106666666666666 49.17333333333333 7.466666666666666 48 13.919999999999998 47.413333333333334s4.96 1.3333333333333333 5.333333333333333 2.7733333333333334c-2.6133333333333333 0.96 -2.08 6.0266666666666655 -2.6133333333333333 8Zm3.413333333333333 8.853333333333332c-1.0133333333333332 -0.37333333333333335 -0.9066666666666667 -1.8666666666666665 -0.9066666666666667 -2.9333333333333336s0.8533333333333333 -10.293333333333333 0.96 -10.666666666666666c62.08 0.7999999999999999 69.33333333333333 -0.7466666666666667 81.28 1.1733333333333333 0.7999999999999999 0 2.88 1.6533333333333333 3.626666666666667 1.2266666666666666a12.32 12.32 0 0 1 0 5.333333333333333c-1.3866666666666667 6.239999999999999 -11.893333333333333 4.64 -20.479999999999997 5.333333333333333 -2.0266666666666664 0 -4.1066666666666665 0.31999999999999995 -6.186666666666666 0.48 -0.48 -5.333333333333333 -9.493333333333332 -12.799999999999999 -18.773333333333333 -11.146666666666665a16.479999999999997 16.479999999999997 0 0 0 -13.599999999999998 12.64 66.18666666666667 66.18666666666667 0 0 1 -25.92 -1.44ZM74.66666666666666 67.19999999999999c-8.266666666666666 0.31999999999999995 -16.586666666666666 0.26666666666666666 -24.85333333333333 0.96 0 -0.6933333333333334 1.6533333333333333 -2.5599999999999996 4.4799999999999995 -4.266666666666667 7.84 -4.8533333333333335 18.986666666666665 -0.6933333333333334 20.37333333333333 3.3066666666666666Zm47.519999999999996 52.266666666666666c-0.37333333333333335 3.6799999999999997 4.96 3.1999999999999997 -76.10666666666665 1.8133333333333335 -13.653333333333332 0.31999999999999995 -33.97333333333333 1.9733333333333332 -40.266666666666666 0.42666666666666664 -1.2266666666666666 -0.31999999999999995 0 -6.773333333333333 0.42666666666666664 -8 3.84 -15.253333333333332 7.04 -28.586666666666666 17.28 -41.599999999999994a96 96 0 0 0 26.666666666666664 1.0133333333333332c8.106666666666666 -0.42666666666666664 16 0 24.319999999999997 0 2.8266666666666667 0 23.146666666666665 -0.96 26.986666666666665 -1.8666666666666665a25.439999999999998 25.439999999999998 0 0 1 6.079999999999999 7.04c3.5733333333333333 6.133333333333333 5.333333333333333 13.44 9.013333333333332 20.53333333333333a82.39999999999999 82.39999999999999 0 0 1 3.626666666666667 9.28c-16 1.76 -40.586666666666666 -0.96 -59.67999999999999 -0.96a455.19999999999993 455.19999999999993 0 0 1 -46.45333333333333 0.96 1.5999999999999999 1.5999999999999999 0 0 0 -0.31999999999999995 3.1466666666666665 381.76 381.76 0 0 0 46.773333333333326 1.9733333333333332c8.586666666666666 0 45.17333333333333 1.5999999999999999 60.74666666666667 -1.7066666666666666a23.893333333333334 23.893333333333334 0 0 1 1.0666666666666667 7.946666666666666Z" fill="#020202" fill-rule="evenodd" stroke-width="1"></path></g></g></svg>