<svg xmlns="http://www.w3.org/2000/svg" viewBox="0 0 128 128" id="Debate-Talk-1--Streamline-Freehand.svg" height="128" width="128"><desc>Debate Talk 1 Streamline Icon: https://streamlinehq.com</desc><title>debate-talk-1</title><g><path d="M43.89333333333333 108.64a24.319999999999997 24.319999999999997 0 0 0 -7.786666666666666 -8.906666666666666 22.560000000000002 22.560000000000002 0 0 0 -2.1333333333333333 -1.2799999999999998 13.76 13.76 0 0 0 2.3466666666666667 -1.1733333333333333A17.653333333333332 17.653333333333332 0 0 0 43.89333333333333 80a20.479999999999997 20.479999999999997 0 0 0 -9.546666666666667 -15.466666666666665 16.32 16.32 0 0 0 -10.666666666666666 -2.1333333333333333 16.906666666666666 16.906666666666666 0 0 0 -13.280000000000001 9.226666666666667 17.706666666666663 17.706666666666663 0 0 0 -2.4 13.173333333333334 18.986666666666665 18.986666666666665 0 0 0 9.6 12.106666666666666 22.826666666666668 22.826666666666668 0 0 0 -6.56 3.466666666666667A29.333333333333332 29.333333333333332 0 0 0 0 122.66666666666666a1.6533333333333333 1.6533333333333333 0 0 0 1.4933333333333334 1.7066666666666666A1.6533333333333333 1.6533333333333333 0 0 0 3.1999999999999997 122.66666666666666a25.65333333333333 25.65333333333333 0 0 1 11.093333333333334 -17.599999999999998 17.226666666666667 17.226666666666667 0 0 1 18.88 -0.6399999999999999 19.36 19.36 0 0 1 6.826666666666666 6.453333333333333 36.85333333333333 36.85333333333333 0 0 1 3.9466666666666663 9.28 1.8133333333333335 1.8133333333333335 0 0 0 3.52 -0.7999999999999999 36.266666666666666 36.266666666666666 0 0 0 -3.5733333333333333 -10.719999999999999ZM18.08 68.26666666666667a16.37333333333333 16.37333333333333 0 0 1 5.973333333333334 -1.76 12.159999999999998 12.159999999999998 0 0 1 7.946666666666666 2.0266666666666664 14.986666666666666 14.986666666666666 0 0 1 6.079999999999999 10.293333333333333 24.319999999999997 24.319999999999997 0 0 1 -6.613333333333333 -0.96 49.17333333333333 49.17333333333333 0 0 1 -6.826666666666666 -2.7199999999999998c-3.0399999999999996 -1.3866666666666667 -6.079999999999999 -2.7199999999999998 -8.959999999999999 -4.373333333333333a17.653333333333332 17.653333333333332 0 0 1 2.4 -2.5066666666666664Zm-5.333333333333333 15.36a12.906666666666666 12.906666666666666 0 0 1 1.0133333333333332 -9.706666666666667 42.666666666666664 42.666666666666664 0 0 0 6.453333333333333 5.333333333333333 27.41333333333333 27.41333333333333 0 0 0 4.1066666666666665 2.1866666666666665 23.68 23.68 0 0 0 4.586666666666666 1.3333333333333333 24.21333333333333 24.21333333333333 0 0 0 9.386666666666667 0 11.2 11.2 0 0 1 -5.333333333333333 9.226666666666667 12.906666666666666 12.906666666666666 0 0 1 -11.786666666666665 0 14.559999999999999 14.559999999999999 0 0 1 -8.533333333333333 -8.373333333333333Z" fill="#020202" fill-rule="evenodd" stroke-width="1"></path><path d="M125.81333333333333 113.91999999999999a27.306666666666665 27.306666666666665 0 0 0 -3.1466666666666665 -6.56 22.666666666666664 22.666666666666664 0 0 0 -10.666666666666666 -8.426666666666666l0.37333333333333335 0A19.733333333333334 19.733333333333334 0 0 0 122.66666666666666 79.30666666666666a18.773333333333333 18.773333333333333 0 0 0 -14.293333333333333 -16 18.293333333333333 18.293333333333333 0 0 0 -9.28 0A18.613333333333333 18.613333333333333 0 0 0 85.33333333333333 76.96a20.37333333333333 20.37333333333333 0 0 0 6.613333333333333 19.306666666666665 20.69333333333333 20.69333333333333 0 0 0 3.093333333333333 2.2399999999999998 28.746666666666663 28.746666666666663 0 0 0 -5.333333333333333 2.453333333333333 34.45333333333333 34.45333333333333 0 0 0 -7.84 7.359999999999999 72.42666666666666 72.42666666666666 0 0 0 -7.466666666666666 13.333333333333332 1.5999999999999999 1.5999999999999999 0 1 0 2.8266666666666667 1.44 67.36 67.36 0 0 1 8.106666666666666 -11.733333333333334 25.813333333333333 25.813333333333333 0 0 1 7.093333333333334 -5.333333333333333 22.186666666666667 22.186666666666667 0 0 1 14.08 -2.4 18.613333333333333 18.613333333333333 0 0 1 12.32 6.773333333333333 22.08 22.08 0 0 1 2.986666666666667 5.333333333333333 62.50666666666667 62.50666666666667 0 0 1 2.7733333333333334 9.173333333333332 1.7066666666666666 1.7066666666666666 0 0 0 2.08 1.44 1.76 1.76 0 0 0 1.44 -2.1333333333333333 60 60 0 0 0 -2.293333333333333 -10.293333333333333Zm-30.453333333333333 -45.22666666666667a19.25333333333333 19.25333333333333 0 0 1 4.4799999999999995 -1.4933333333333334 14.506666666666668 14.506666666666668 0 0 1 16.746666666666666 11.146666666666665 65.22666666666666 65.22666666666666 0 0 1 -9.333333333333332 -0.6399999999999999l-4.16 -0.7999999999999999 -4.16 -1.0133333333333332a48 48 0 0 1 -7.68 -2.7733333333333334 13.493333333333332 13.493333333333332 0 0 1 1.1199999999999999 -1.7066666666666666 14.506666666666668 14.506666666666668 0 0 1 2.986666666666667 -2.7199999999999998Zm0 23.306666666666665a16 16 0 0 1 -6.0266666666666655 -14.239999999999998 5.653333333333333 5.653333333333333 0 0 1 0.31999999999999995 -1.0133333333333332 33.33333333333333 33.33333333333333 0 0 0 7.253333333333334 4.64 21.759999999999998 21.759999999999998 0 0 0 4.8 1.4933333333333334 31.36 31.36 0 0 0 5.013333333333333 0.5333333333333333 47.626666666666665 47.626666666666665 0 0 0 9.973333333333333 -1.2266666666666666 13.973333333333333 13.973333333333333 0 0 1 -7.306666666666667 11.306666666666667 11.786666666666665 11.786666666666665 0 0 1 -13.919999999999998 -1.4933333333333334Z" fill="#020202" fill-rule="evenodd" stroke-width="1"></path><path d="M77.54666666666665 64.42666666666666c0.31999999999999995 -1.8133333333333335 0.31999999999999995 -4.053333333333333 0.42666666666666664 -5.333333333333333l0 -0.6399999999999999 3.84 -0.5333333333333333a99.25333333333333 99.25333333333333 0 0 0 10.666666666666666 -0.5866666666666667 12.053333333333331 12.053333333333331 0 0 0 7.466666666666666 -5.333333333333333 21.333333333333332 21.333333333333332 0 0 0 3.1999999999999997 -7.893333333333333 55.25333333333333 55.25333333333333 0 0 0 0.7999999999999999 -11.733333333333334 73.6 73.6 0 0 0 -0.6933333333333334 -10.666666666666666A28.16 28.16 0 0 0 101.33333333333333 14.186666666666667 18.4 18.4 0 0 0 93.81333333333333 5.333333333333333a30.826666666666668 30.826666666666668 0 0 0 -16 -3.52c-4.96 0 -9.92 0.26666666666666666 -14.879999999999999 0.5866666666666667 -7.253333333333334 0.5333333333333333 -14.506666666666668 1.3333333333333333 -21.706666666666667 1.9733333333333332a36.21333333333333 36.21333333333333 0 0 0 -6.666666666666666 0.5333333333333333 12.799999999999999 12.799999999999999 0 0 0 -6.239999999999999 2.88 15.573333333333332 15.573333333333332 0 0 0 -3.413333333333333 5.333333333333333 34.61333333333333 34.61333333333333 0 0 0 -2.1866666666666665 8.693333333333332 67.25333333333333 67.25333333333333 0 0 0 0.37333333333333335 16.906666666666666A33.76 33.76 0 0 0 26.666666666666664 49.919999999999995a14.613333333333333 14.613333333333333 0 0 0 10.186666666666666 6.613333333333333 72.63999999999999 72.63999999999999 0 0 0 16 0.6933333333333334l6.079999999999999 0 1.0133333333333332 0 8.373333333333333 8.64 2.5066666666666664 2.0266666666666664 1.0666666666666667 0.7999999999999999a3.36 3.36 0 0 0 4.16 -0.48 7.68 7.68 0 0 0 1.4933333333333334 -3.786666666666666Zm-4.4799999999999995 -10.293333333333333a3.6799999999999997 3.6799999999999997 0 0 0 -0.8533333333333333 1.5466666666666664 26.29333333333333 26.29333333333333 0 0 0 -0.31999999999999995 2.6666666666666665l0 2.0266666666666664 -8.746666666666666 -8.693333333333332a3.3066666666666666 3.3066666666666666 0 0 0 -2.08 -0.8533333333333333c-0.6933333333333334 0 -2.293333333333333 0.31999999999999995 -2.5599999999999996 0.31999999999999995l-5.76 0.31999999999999995a63.093333333333334 63.093333333333334 0 0 1 -14.826666666666664 0 9.493333333333332 9.493333333333332 0 0 1 -6.88 -3.9466666666666663 29.119999999999997 29.119999999999997 0 0 1 -3.413333333333333 -9.44 64.53333333333333 64.53333333333333 0 0 1 -0.8533333333333333 -16A27.57333333333333 27.57333333333333 0 0 1 28 16a14.293333333333333 14.293333333333333 0 0 1 2.8266666666666667 -5.333333333333333 8.533333333333333 8.533333333333333 0 0 1 4.4799999999999995 -2.08s-2.5066666666666664 -0.37333333333333335 27.839999999999996 -1.7066666666666666c4.8533333333333335 0 9.706666666666667 -0.31999999999999995 14.559999999999999 0a29.92 29.92 0 0 1 11.52 2.1333333333333333A13.386666666666665 13.386666666666665 0 0 1 96.47999999999999 16a22.186666666666667 22.186666666666667 0 0 1 1.5466666666666664 6.079999999999999 64 64 0 0 1 0.37333333333333335 10.133333333333333 46.986666666666665 46.986666666666665 0 0 1 -0.9066666666666667 10.666666666666666 16 16 0 0 1 -2.3466666666666667 5.76 6.346666666666666 6.346666666666666 0 0 1 -3.893333333333333 2.6666666666666665 89.6 89.6 0 0 1 -10.239999999999998 0.42666666666666664 41.38666666666666 41.38666666666666 0 0 0 -4.906666666666666 0.6933333333333334 6.72 6.72 0 0 0 -3.0399999999999996 1.7066666666666666Z" fill="#1d4ed8" fill-rule="evenodd" stroke-width="1"></path></g></svg>