<svg xmlns="http://www.w3.org/2000/svg" viewBox="0 0 128 128" id="Edit-Pencil--Streamline-Freehand.svg" height="128" width="128"><desc>Edit Pencil Streamline Icon: https://streamlinehq.com</desc><g><path d="M127.68 17.439999999999998A16.906666666666666 16.906666666666666 0 0 0 117.33333333333333 5.973333333333334 20.799999999999997 20.799999999999997 0 0 0 102.34666666666666 5.333333333333333a16 16 0 0 0 -5.333333333333333 3.626666666666667 25.706666666666667 25.706666666666667 0 0 0 -5.333333333333333 7.626666666666666 17.813333333333333 17.813333333333333 0 0 0 -1.5999999999999999 4.4799999999999995 1.8133333333333335 1.8133333333333335 0 0 0 1.1733333333333333 2.1866666666666665 1.5999999999999999 1.5999999999999999 0 0 0 2.08 -0.96l1.6533333333333333 -3.893333333333333a24 24 0 0 1 4 -5.333333333333333 12.053333333333331 12.053333333333331 0 0 1 5.066666666666666 -2.8266666666666667 16 16 0 0 1 10.666666666666666 1.3866666666666667 11.733333333333334 11.733333333333334 0 0 1 7.52 7.04A18.133333333333333 18.133333333333333 0 0 1 122.66666666666666 27.093333333333334a32 32 0 0 1 -2.7733333333333334 8.16l-0.6933333333333334 -0.37333333333333335C113.54666666666665 32 100.10666666666665 25.226666666666667 96 22.93333333333333a1.8666666666666665 1.8666666666666665 0 0 0 -2.5066666666666664 0.7466666666666667 1.8666666666666665 1.8666666666666665 0 0 0 0.7466666666666667 2.5066666666666664l23.68 12.906666666666666c-0.48 1.0666666666666667 -1.2799999999999998 2.6666666666666665 -2.293333333333333 4.64 -6.506666666666666 12.906666666666666 -22.08 41.92 -27.626666666666665 51.57333333333333a60.10666666666666 60.10666666666666 0 0 0 -7.253333333333334 -6.133333333333333c-1.2799999999999998 -0.8533333333333333 -2.6666666666666665 -1.7066666666666666 -4 -2.453333333333333a34.45333333333333 34.45333333333333 0 0 0 -4.32 -1.92 46.13333333333333 46.13333333333333 0 0 0 -8.426666666666666 -2.2399999999999998 13.493333333333332 13.493333333333332 0 0 1 0.6399999999999999 -1.92c4.906666666666666 -11.36 17.706666666666663 -36.42666666666666 23.57333333333333 -48 1.3333333333333333 -2.5599999999999996 2.293333333333333 -4.426666666666666 2.7199999999999998 -5.333333333333333 1.0666666666666667 -2.0266666666666664 -2.1866666666666665 -2.5599999999999996 -2.2399999999999998 -2.5066666666666664a41.76 41.76 0 0 0 -3.52 6.186666666666666c-6.453333333333333 11.68 -20.32 36.21333333333333 -25.599999999999998 47.413333333333334a18.88 18.88 0 0 0 -2.3466666666666667 6.933333333333334c0.37333333333333335 2.2399999999999998 2.7199999999999998 18.08 4.266666666666667 24.426666666666666a8.266666666666666 8.266666666666666 0 0 0 2.293333333333333 4.4799999999999995 5.706666666666667 5.706666666666667 0 0 0 3.1999999999999997 0.7466666666666667 22.826666666666668 22.826666666666668 0 0 0 7.093333333333334 -2.08 68 68 0 0 0 16.37333333333333 -10.666666666666666c1.3333333333333333 -1.4933333333333334 17.386666666666663 -32.373333333333335 26.186666666666667 -50.50666666666667 2.6133333333333333 -5.333333333333333 4.586666666666666 -9.546666666666667 5.333333333333333 -11.573333333333332a95.35999999999999 95.35999999999999 0 0 0 4.96 -12.426666666666666 24.85333333333333 24.85333333333333 0 0 0 0.7466666666666667 -10.293333333333333ZM68.32 108.69333333333333h-0.7999999999999999s-3.626666666666667 -17.599999999999998 -4.4799999999999995 -22.346666666666668c2.5066666666666664 1.2266666666666666 5.333333333333333 2.88 8.053333333333333 4.4799999999999995 1.6533333333333333 0.96 3.413333333333333 1.8133333333333335 5.333333333333333 2.7199999999999998s3.5733333333333333 1.6533333333333333 5.333333333333333 2.5599999999999996l4.16 2.5066666666666664a56.74666666666667 56.74666666666667 0 0 1 -9.76 6.506666666666666 40.586666666666666 40.586666666666666 0 0 1 -7.84 3.5733333333333333Z" fill="#020202" fill-rule="evenodd" stroke-width="1"></path><path d="M64 120.26666666666667a82.45333333333333 82.45333333333333 0 0 1 -9.653333333333332 -2.6666666666666665 30.4 30.4 0 0 1 -5.706666666666667 -2.6133333333333333 6.666666666666666 6.666666666666666 0 0 1 -3.093333333333333 -3.9466666666666663 16.85333333333333 16.85333333333333 0 0 1 1.0133333333333332 -6.933333333333334 16 16 0 0 0 0 -10.079999999999998 9.76 9.76 0 0 0 -4.213333333333333 -4.373333333333333 18.08 18.08 0 0 0 -7.306666666666667 -2.2399999999999998 67.14666666666666 67.14666666666666 0 0 0 -13.706666666666665 1.1733333333333333 165.76 165.76 0 0 0 -19.84 5.333333333333333A1.6533333333333333 1.6533333333333333 0 0 0 0 96a1.5999999999999999 1.5999999999999999 0 0 0 1.9733333333333332 1.1733333333333333c5.333333333333333 -1.1199999999999999 10.666666666666666 -2.2399999999999998 16.479999999999997 -2.986666666666667a68.32 68.32 0 0 1 16 -0.42666666666666664 11.04 11.04 0 0 1 3.786666666666666 1.1199999999999999c0.96 0.48 1.9733333333333332 0.96 2.293333333333333 1.76a10.666666666666666 10.666666666666666 0 0 1 0 6.3999999999999995 20.159999999999997 20.159999999999997 0 0 0 -0.42666666666666664 9.546666666666667 11.2 11.2 0 0 0 5.8133333333333335 6.826666666666666 34.45333333333333 34.45333333333333 0 0 0 6.986666666666666 2.6133333333333333 90.66666666666666 90.66666666666666 0 0 0 10.346666666666666 2.08 1.8666666666666665 1.8666666666666665 0 0 0 2.1333333333333333 -1.4933333333333334 1.8666666666666665 1.8666666666666665 0 0 0 -1.3866666666666667 -2.3466666666666667Z" fill="#1d4ed8" fill-rule="evenodd" stroke-width="1"></path></g></svg>