<svg xmlns="http://www.w3.org/2000/svg" viewBox="0 0 128 128" id="Learning-Light-Idea--Streamline-Freehand.svg" height="128" width="128"><desc>Learning Light Idea Streamline Icon: https://streamlinehq.com</desc><g><path d="M38.29333333333333 80.85333333333332a27.36 27.36 0 0 1 -2.7199999999999998 2.8266666666666667 8.266666666666666 8.266666666666666 0 0 1 -2.9333333333333336 1.5999999999999999 4.4799999999999995 4.4799999999999995 0 0 1 -2.4 0 16.266666666666666 16.266666666666666 0 0 1 -2.1866666666666665 0.05333333333333333 7.52 7.52 0 0 1 -3.3066666666666666 -1.7066666666666666 1.4933333333333334 1.4933333333333334 0 0 0 -2.5599999999999996 1.5999999999999999A11.04 11.04 0 0 0 28.586666666666666 90.66666666666666a8.799999999999999 8.799999999999999 0 0 0 6.506666666666666 0 12.106666666666666 12.106666666666666 0 0 0 3.3066666666666666 -2.8266666666666667 20.32 20.32 0 0 0 2.8266666666666667 -5.333333333333333 1.6533333333333333 1.6533333333333333 0 0 0 -0.6399999999999999 -2.5066666666666664 1.5999999999999999 1.5999999999999999 0 0 0 -2.293333333333333 0.8533333333333333Z" fill="#020202" fill-rule="evenodd" stroke-width="1"></path><path d="M35.57333333333333 72.53333333333333c0.7999999999999999 0 2.2399999999999998 -3.1999999999999997 2.2399999999999998 -3.3066666666666666s-1.5999999999999999 -3.0399999999999996 -2.2399999999999998 -3.253333333333333 -1.3333333333333333 -0.37333333333333335 -3.36 2.453333333333333A1.3333333333333333 1.3333333333333333 0 0 0 32 69.33333333333333a1.1733333333333333 1.1733333333333333 0 0 0 0 0.6933333333333334c1.8666666666666665 2.4 2.6133333333333333 2.7733333333333334 3.5733333333333333 2.5066666666666664Z" fill="#020202" fill-rule="evenodd" stroke-width="1"></path><path d="M24.21333333333333 71.89333333333333a1.1199999999999999 1.1199999999999999 0 0 0 -0.31999999999999995 -0.5333333333333333C21.333333333333332 68.8 20.64 69.33333333333333 20.586666666666666 69.33333333333333c-1.1199999999999999 0.26666666666666666 -1.92 3.52 -1.92 3.626666666666667a0.9066666666666667 0.9066666666666667 0 0 0 0 0.6399999999999999 1.76 1.76 0 0 0 0.31999999999999995 0.5333333333333333c2.453333333333333 2.5599999999999996 2.8266666666666667 2.4 3.52 2.1866666666666665 1.5999999999999999 -0.42666666666666664 1.7066666666666666 -4.373333333333333 1.7066666666666666 -4.426666666666666Z" fill="#020202" fill-rule="evenodd" stroke-width="1"></path><path d="M85.97333333333333 84.74666666666667a8.746666666666666 8.746666666666666 0 0 0 -8.053333333333333 1.5466666666666664 22.77333333333333 22.77333333333333 0 0 0 -5.066666666666666 5.866666666666667 51.413333333333334 51.413333333333334 0 0 1 -3.52 5.333333333333333 9.92 9.92 0 0 1 -10.293333333333333 3.413333333333333 26.666666666666664 26.666666666666664 0 0 1 -10.666666666666666 -5.76 21.866666666666664 21.866666666666664 0 0 0 2.7199999999999998 -3.413333333333333 30.29333333333333 30.29333333333333 0 0 0 4.16 -11.733333333333334 21.973333333333333 21.973333333333333 0 0 0 -1.92 -12.799999999999999 21.333333333333332 21.333333333333332 0 0 0 -13.866666666666667 -11.68C22.986666666666665 51.25333333333333 10.666666666666666 65.91999999999999 8.586666666666666 74.66666666666666a23.57333333333333 23.57333333333333 0 0 0 5.333333333333333 22.08 23.306666666666665 23.306666666666665 0 0 0 2.986666666666667 2.6133333333333333 25.813333333333333 25.813333333333333 0 0 0 -9.546666666666667 11.786666666666665 56.213333333333324 56.213333333333324 0 0 0 -1.76 5.333333333333333 53.33333333333333 53.33333333333333 0 0 0 -1.2799999999999998 5.333333333333333 17.013333333333332 17.013333333333332 0 0 0 -0.42666666666666664 4A1.7066666666666666 1.7066666666666666 0 0 0 5.333333333333333 128a1.7066666666666666 1.7066666666666666 0 0 0 1.8133333333333335 -1.5999999999999999 16 16 0 0 1 0.8533333333333333 -3.1466666666666665c0.6399999999999999 -1.6533333333333333 1.44 -3.1999999999999997 2.1866666666666665 -4.8533333333333335s1.8133333333333335 -3.9466666666666663 2.7199999999999998 -5.866666666666667a45.22666666666667 45.22666666666667 0 0 1 2.8266666666666667 -5.333333333333333 30.4 30.4 0 0 1 4.16 -5.333333333333333 21.333333333333332 21.333333333333332 0 0 0 16.32 0.9066666666666667 33.44 33.44 0 0 0 8.106666666666666 -3.893333333333333 16.586666666666666 16.586666666666666 0 0 0 1.4933333333333334 -1.2266666666666666 27.946666666666665 27.946666666666665 0 0 0 15.146666666666665 8.373333333333333 14.239999999999998 14.239999999999998 0 0 0 12.213333333333333 -4.693333333333333c2.0266666666666664 -2.08 4.266666666666667 -6.3999999999999995 7.04 -9.226666666666667a4.1066666666666665 4.1066666666666665 0 0 1 4.1066666666666665 -1.6533333333333333 3.5733333333333333 3.5733333333333333 0 0 1 2.4 2.7199999999999998 12.746666666666666 12.746666666666666 0 0 1 0 5.333333333333333 33.44 33.44 0 0 1 -4.373333333333333 12.106666666666666 21.706666666666667 21.706666666666667 0 0 1 -9.173333333333332 8.48 1.7066666666666666 1.7066666666666666 0 0 0 -0.9066666666666667 2.2399999999999998 1.7066666666666666 1.7066666666666666 0 0 0 2.2399999999999998 0.9066666666666667 25.013333333333335 25.013333333333335 0 0 0 11.413333333333334 -9.28 39.04 39.04 0 0 0 5.866666666666667 -13.386666666666665 16.85333333333333 16.85333333333333 0 0 0 -0.31999999999999995 -9.6 8.64 8.64 0 0 0 -5.493333333333333 -5.226666666666667Zm-44.693333333333335 8.906666666666666a26.666666666666664 26.666666666666664 0 0 1 -6.72 3.1999999999999997 16 16 0 0 1 -16.906666666666666 -3.6799999999999997 19.36 19.36 0 0 1 -5.333333333333333 -17.546666666666667 23.146666666666665 23.146666666666665 0 0 1 5.333333333333333 -10.666666666666666 22.88 22.88 0 0 1 20.21333333333333 -5.706666666666667A16.96 16.96 0 0 1 49.06666666666666 69.33333333333333a18.293333333333333 18.293333333333333 0 0 1 1.0133333333333332 9.866666666666667 25.706666666666667 25.706666666666667 0 0 1 -3.786666666666666 9.6 16.479999999999997 16.479999999999997 0 0 1 -5.013333333333333 4.8533333333333335Z" fill="#020202" fill-rule="evenodd" stroke-width="1"></path><path d="M90.66666666666666 20.05333333333333a20 20 0 0 0 -20.426666666666666 11.573333333333332 12.693333333333332 12.693333333333332 0 0 0 0 10.079999999999998c2.453333333333333 5.866666666666667 8.906666666666666 11.04 10.666666666666666 16.746666666666666a11.68 11.68 0 0 0 2.293333333333333 10.399999999999999 7.7333333333333325 7.7333333333333325 0 0 0 8.853333333333332 1.0133333333333332 8.48 8.48 0 0 0 3.36 -3.1999999999999997 15.68 15.68 0 0 0 1.76 -5.333333333333333c3.733333333333333 -14.133333333333333 4.32 -8.373333333333333 8.533333333333333 -16a14.506666666666668 14.506666666666668 0 0 0 1.76 -8.586666666666666A17.813333333333333 17.813333333333333 0 0 0 90.66666666666666 20.05333333333333Zm1.3866666666666667 43.46666666666667a3.786666666666666 3.786666666666666 0 0 1 -2.1866666666666665 1.3866666666666667 3.466666666666667 3.466666666666667 0 0 1 -2.1866666666666665 0 3.36 3.36 0 0 1 -1.7066666666666666 -1.0133333333333332 6.826666666666666 6.826666666666666 0 0 1 -1.76 -4.693333333333333 21.333333333333332 21.333333333333332 0 0 0 3.6799999999999997 0.6399999999999999 10.293333333333333 10.293333333333333 0 0 0 1.8133333333333335 0 10.666666666666666 10.666666666666666 0 0 0 1.76 -0.42666666666666664l1.5999999999999999 -0.5333333333333333a1.4933333333333334 1.4933333333333334 0 0 0 0.7466666666666667 1.2799999999999998 16 16 0 0 1 -2.0266666666666664 3.36ZM101.33333333333333 42.93333333333334c-1.8666666666666665 4.1066666666666665 -5.333333333333333 7.466666666666666 -7.359999999999999 11.626666666666667 -1.1199999999999999 0 -2.2399999999999998 -0.37333333333333335 -3.413333333333333 -0.42666666666666664h-1.8133333333333335l-1.76 0.31999999999999995c-1.44 0.42666666666666664 -2.5599999999999996 1.1199999999999999 -3.9466666666666663 1.6533333333333333 -1.8133333333333335 -5.333333333333333 -6.933333333333334 -10.666666666666666 -8.746666666666666 -16A7.7333333333333325 7.7333333333333325 0 0 1 74.66666666666666 33.76a14.986666666666666 14.986666666666666 0 0 1 15.253333333333332 -8 12.853333333333333 12.853333333333333 0 0 1 12.32 11.146666666666665A10.186666666666666 10.186666666666666 0 0 1 101.33333333333333 42.93333333333334Z" fill="#020202" fill-rule="evenodd" stroke-width="1"></path><path d="M51.626666666666665 24.906666666666666a14.453333333333333 14.453333333333333 0 0 0 2.7199999999999998 2.0266666666666664 3.626666666666667 3.626666666666667 0 0 0 1.2799999999999998 0.42666666666666664 5.333333333333333 5.333333333333333 0 0 0 1.3333333333333333 0 17.013333333333332 17.013333333333332 0 0 0 3.253333333333333 -0.42666666666666664 1.6533333333333333 1.6533333333333333 0 0 0 1.92 -1.3866666666666667 1.7066666666666666 1.7066666666666666 0 0 0 -1.3866666666666667 -1.9733333333333332c-0.96 -0.48 -1.7066666666666666 -1.0133333333333332 -2.7199999999999998 -1.4933333333333334l-1.1733333333333333 -0.42666666666666664a4.533333333333333 4.533333333333333 0 0 0 -1.2266666666666666 0c-1.1733333333333333 0 -1.9733333333333332 0.31999999999999995 -3.1466666666666665 0.42666666666666664a1.4933333333333334 1.4933333333333334 0 0 0 -0.8533333333333333 2.88Z" fill="#1d4ed8" fill-rule="evenodd" stroke-width="1"></path><path d="M66.98666666666666 9.013333333333332a7.093333333333334 7.093333333333334 0 0 0 0.7466666666666667 1.0133333333333332 5.653333333333333 5.653333333333333 0 0 0 1.0666666666666667 0.9066666666666667 15.573333333333332 15.573333333333332 0 0 0 3.0399999999999996 1.76 1.76 1.76 0 0 0 2.4 0 1.7066666666666666 1.7066666666666666 0 0 0 0 -2.4c-0.5333333333333333 -1.0133333333333332 -0.7999999999999999 -1.9733333333333332 -1.3866666666666667 -2.9333333333333336a6.72 6.72 0 0 0 -1.3333333333333333 -1.6533333333333333 11.306666666666667 11.306666666666667 0 0 0 -3.786666666666666 -1.92 1.4933333333333334 1.4933333333333334 0 0 0 -2.1333333333333333 0 1.5466666666666664 1.5466666666666664 0 0 0 0 2.1333333333333333c0.6933333333333334 1.1733333333333333 0.8533333333333333 2.08 1.3866666666666667 3.093333333333333Z" fill="#1d4ed8" fill-rule="evenodd" stroke-width="1"></path><path d="M99.35999999999999 12.746666666666666a1.7066666666666666 1.7066666666666666 0 0 0 1.9733333333333332 -1.1733333333333333c0.6933333333333334 -1.0666666666666667 1.3866666666666667 -1.92 1.9733333333333332 -2.986666666666667s0.48 -0.9066666666666667 0.6933333333333334 -1.3333333333333333a12.213333333333333 12.213333333333333 0 0 0 0.37333333333333335 -1.4933333333333334l0 -3.733333333333333a1.5466666666666664 1.5466666666666664 0 0 0 -0.7466666666666667 -2.0266666666666664 1.44 1.44 0 0 0 -1.92 0.9066666666666667 31.199999999999996 31.199999999999996 0 0 0 -2.4 2.88 6.56 6.56 0 0 0 -0.6399999999999999 1.5466666666666664 8 8 0 0 0 -0.31999999999999995 1.5466666666666664 17.866666666666667 17.866666666666667 0 0 0 0 3.786666666666666 1.7066666666666666 1.7066666666666666 0 0 0 1.0133333333333332 2.08Z" fill="#1d4ed8" fill-rule="evenodd" stroke-width="1"></path><path d="M123.68 13.706666666666665a1.4933333333333334 1.4933333333333334 0 0 0 -2.1333333333333333 0 29.759999999999998 29.759999999999998 0 0 0 -3.52 1.5999999999999999 7.306666666666667 7.306666666666667 0 0 0 -1.2266666666666666 0.6933333333333334l-1.0666666666666667 1.1199999999999999c-0.7999999999999999 0.96 -1.3333333333333333 1.92 -2.2399999999999998 2.8266666666666667a1.76 1.76 0 0 0 -0.48 2.4 1.7066666666666666 1.7066666666666666 0 0 0 2.3466666666666667 0.48 19.466666666666665 19.466666666666665 0 0 0 3.786666666666666 -1.4933333333333334 8.48 8.48 0 0 0 1.44 -0.96 7.84 7.84 0 0 0 1.1199999999999999 -1.1733333333333333 36.10666666666666 36.10666666666666 0 0 0 1.92 -3.1999999999999997 1.4933333333333334 1.4933333333333334 0 0 0 0.05333333333333333 -2.293333333333333Z" fill="#1d4ed8" fill-rule="evenodd" stroke-width="1"></path></g></svg>