<svg xmlns="http://www.w3.org/2000/svg" fill="none" viewBox="0 0 14 14" id="Book-2--Streamline-Core.svg"><desc>Book 2 Streamline Icon: https://streamlinehq.com</desc><g id="book-2--library-content-books-book-shelf-stack"><path id="Union" fill="#1d4ed8" fill-rule="evenodd" d="M1 0.5h2c0.27614 0 0.5 0.223858 0.5 0.5v8.25h-3V1C0.5 0.723858 0.723858 0.5 1 0.5ZM0.5 10.75V13c0 0.2761 0.223858 0.5 0.5 0.5h2c0.27614 0 0.5 -0.2239 0.5 -0.5v-2.25h-3ZM7 2H5c-0.27614 0 -0.5 0.22386 -0.5 0.5V13c0 0.2761 0.22386 0.5 0.5 0.5h2c0.27614 0 0.5 -0.2239 0.5 -0.5V2.5c0 -0.27614 -0.22386 -0.5 -0.5 -0.5Zm3.7652 0.21056c-0.0715 -0.26673 -0.3456 -0.42503 -0.6124 -0.35355l-1.9318 0.51763c-0.26674 0.07147 -0.42503 0.34564 -0.35356 0.61238L9.53159 9.1977l2.89781 -0.77646 -1.6642 -6.21068ZM10.585 13.1292l-0.66518 -2.4826 2.89778 -0.77647 0.6652 2.48267c0.0715 0.2667 -0.0868 0.5409 -0.3535 0.6124l-1.9319 0.5176c-0.2667 0.0715 -0.5409 -0.0868 -0.6124 -0.3536Z" clip-rule="evenodd" stroke-width="1"></path></g></svg>