<svg xmlns="http://www.w3.org/2000/svg" fill="none" viewBox="0 0 14 14" id="Book-2--Streamline-Core.svg"><desc>Book 2 Streamline Icon: https://streamlinehq.com</desc><g id="book-2--library-content-books-book-shelf-stack"><path id="Vector 3900" fill="#8fbffa" d="M3 0.5H1C0.723858 0.5 0.5 0.723858 0.5 1v12c0 0.2761 0.223858 0.5 0.5 0.5h2c0.27614 0 0.5 -0.2239 0.5 -0.5V1c0 -0.276142 -0.22386 -0.5 -0.5 -0.5Z" stroke-width="1"></path><path id="Intersect" fill="#2859c5" fill-rule="evenodd" d="M3.5 9.25h-3v1.5h3v-1.5Z" clip-rule="evenodd" stroke-width="1"></path><path id="Vector 3902" fill="#2859c5" d="M7 2H5c-0.27614 0 -0.5 0.22386 -0.5 0.5V13c0 0.2761 0.22386 0.5 0.5 0.5h2c0.27614 0 0.5 -0.2239 0.5 -0.5V2.5c0 -0.27614 -0.22386 -0.5 -0.5 -0.5Z" stroke-width="1"></path><path id="Vector 3903" fill="#8fbffa" d="M10.7652 2.21056c-0.0715 -0.26673 -0.3456 -0.42503 -0.6124 -0.35356l-1.9318 0.51764c-0.26674 0.07147 -0.42503 0.34564 -0.35356 0.61238L10.585 13.1292c0.0715 0.2668 0.3457 0.4251 0.6124 0.3536l1.9319 -0.5176c0.2667 -0.0715 0.425 -0.3457 0.3535 -0.6124L10.7652 2.21056Z" stroke-width="1"></path><path id="Intersect_2" fill="#2859c5" fill-rule="evenodd" d="m12.4294 8.42126 -2.89778 0.77646 0.38823 1.44888 2.89775 -0.77645 -0.3882 -1.44889Z" clip-rule="evenodd" stroke-width="1"></path></g></svg>