<svg xmlns="http://www.w3.org/2000/svg" fill="none" viewBox="0 0 128 128" id="Linkedin-Logo--Streamline-Logos-Block.svg" height="128" width="128"><desc>Linkedin Logo Streamline Icon: https://streamlinehq.com</desc><path fill="#000000" fill-rule="evenodd" d="M26.666666666666664 5.333333333333333a21.333333333333332 21.333333333333332 0 0 0 -21.333333333333332 21.333333333333332v74.66666666666666a21.333333333333332 21.333333333333332 0 0 0 21.333333333333332 21.333333333333332h74.66666666666666a21.333333333333332 21.333333333333332 0 0 0 21.333333333333332 -21.333333333333332V26.666666666666664a21.333333333333332 21.333333333333332 0 0 0 -21.333333333333332 -21.333333333333332H26.666666666666664Zm6.426666666666667 36.85333333333333a9.093333333333334 9.093333333333334 0 1 0 0 -18.186666666666667 9.093333333333334 9.093333333333334 0 0 0 0 18.186666666666667ZM42.18133333333333 104V49.455999999999996H24V104h18.186666666666667Zm23.637333333333334 -54.544H49.455999999999996V104h16.362666666666666v-32.906666666666666c2.1066666666666665 -3.424 5.744 -7.093333333333334 10.906666666666666 -7.093333333333334 7.274666666666667 0 9.093333333333334 7.274666666666667 9.093333333333334 10.911999999999999V104H104v-29.087999999999997c0 -9.749333333333333 -4.250666666666667 -25.455999999999996 -20 -25.455999999999996 -10.015999999999998 0 -15.573333333333332 3.6533333333333333 -18.186666666666667 7.077333333333333V49.455999999999996Z" clip-rule="evenodd" stroke-width="1"></path></svg>