<svg xmlns="http://www.w3.org/2000/svg" fill="none" viewBox="0 0 14 14" id="Ai-Edit-Spark--Streamline-Core.svg" height="14" width="14"><desc>Ai Edit Spark Streamline Icon: https://streamlinehq.com</desc><g id="ai-edit-spark--change-edit-modify-pencil-write-writing-artificial-intelligence-ai"><path id="Union" fill="#1d4ed8" fill-rule="evenodd" d="M2.81049 0.6564c0.18748 -0.870903 1.4203 -0.877124 1.61546 -0.007044l0.02529 0.112754c0.23854 1.06349 1.07959 1.87059 2.12537 2.0556 0.89785 0.15883 0.89785 1.45575 0 1.61458 -1.04578 0.18501 -1.88683 0.99211 -2.12537 2.0556l-0.02529 0.11276c-0.19516 0.87008 -1.42798 0.86385 -1.61546 -0.00705l-0.02083 -0.09675C2.55983 5.42923 1.71971 4.61603 0.672064 4.4307c-0.896082 -0.15853 -0.896089 -1.45287 0 -1.61139C1.71971 2.63397 2.55983 1.82077 2.78966 0.753152L2.81049 0.6564Zm7.82691 2.96014c0.1842 -0.0775 0.382 -0.11743 0.5818 -0.11743 0.1998 0 0.3976 0.03993 0.5818 0.11743 0.1836 0.07724 0.3499 0.19025 0.4893 0.33243l0.0014 0.00146 1.2662 1.27618c0.1399 0.13911 0.2509 0.30443 0.3268 0.48652 0.0761 0.18278 0.1153 0.37884 0.1153 0.57686 0 0.19802 -0.0392 0.39408 -0.1153 0.57687 -0.0759 0.18213 -0.187 0.34751 -0.3269 0.48664l-0.0015 0.00149 -6.1974 6.23741c-0.08334 0.0839 -0.19371 0.1355 -0.31151 0.1457l-3 0.26c-0.14711 0.0128 -0.29232 -0.0401 -0.39673 -0.1446 -0.10441 -0.1044 -0.15733 -0.2496 -0.14458 -0.3967l0.26 -3c0.01021 -0.1178 0.06184 -0.2282 0.14572 -0.3115l6.2377 -6.1977c0.1391 -0.14154 0.305 -0.25407 0.4879 -0.33106Z" clip-rule="evenodd" stroke-width="1"></path></g></svg>