<svg xmlns="http://www.w3.org/2000/svg" fill="none" viewBox="0 0 128 128" id="Social-Video-Youtube-Clip--Streamline-Freehand.svg" height="128" width="128"><desc>Social Video Youtube Clip Streamline Icon: https://streamlinehq.com</desc><path fill="#020202" fill-rule="evenodd" d="M123.77066666666667 19.658666666666665c-6.0266666666666655 -7.461333333333333 -19.904 -6.506666666666666 -28.837333333333333 -6.938666666666666 -19.365333333333332 -0.96 -35.13066666666666 -0.9866666666666666 -54.29333333333333 -0.42666666666666664C2.1066666666666665 13.44 -2.357333333333333 11.258666666666667 0.8373333333333333 93.86666666666667c0.3946666666666666 9.738666666666667 3.7439999999999998 17.759999999999998 13.248 19.12533333333333 27.402666666666665 4.053333333333333 55.248 4.1066666666666665 82.66666666666666 0.176 23.983999999999998 -4.096 28.464 -2.9653333333333336 30.325333333333333 -25.296 0.9386666666666665 -10.586666666666666 2.5066666666666664 -64.47999999999999 -3.3066666666666666 -68.21333333333332Zm-3.0879999999999996 2.6079999999999997c5.930666666666667 7.290666666666667 1.6373333333333333 65.41333333333333 -0.6399999999999999 75.36 -1.2426666666666666 5.664 -5.904 6.442666666666666 -11.733333333333334 7.4559999999999995a293.4133333333333 293.4133333333333 0 0 1 -37.605333333333334 3.8506666666666662c-8.533333333333333 0.35733333333333334 -56.85333333333333 0.7466666666666667 -60.730666666666664 -6.938666666666666A296.79999999999995 296.79999999999995 0 0 1 9.690666666666665 28.906666666666666a15.024000000000001 15.024000000000001 0 0 1 13.653333333333332 -9.562666666666665 860.5333333333333 860.5333333333333 0 0 1 88.42666666666665 -1.2106666666666666 13.237333333333334 13.237333333333334 0 0 1 8.917333333333332 4.112v0.016Z" clip-rule="evenodd" stroke-width="1"></path><path fill="#1d4ed8" fill-rule="evenodd" d="M79.92533333333333 47.824c-9.482666666666667 -4.917333333333334 -29.626666666666665 -21.936 -38.49066666666666 -2.474666666666667a76.32533333333333 76.32533333333333 0 0 0 -0.7786666666666666 33.696 13.653333333333332 13.653333333333332 0 0 0 16.106666666666666 10.933333333333332 63.97333333333333 63.97333333333333 0 0 0 18.59733333333333 -8.117333333333333c20.874666666666666 -12.336 26.389333333333333 -22.703999999999997 4.565333333333333 -34.03733333333333Zm-1.9413333333333331 3.5893333333333333c19.477333333333334 11.471999999999998 9.397333333333332 17.525333333333332 -11.226666666666667 27.482666666666663 -19.232 9.04 -19.914666666666665 2.7306666666666666 -20.159999999999997 -18.96 -0.864 -27.92 14.186666666666667 -16.074666666666666 31.41333333333333 -8.506666666666666l-0.026666666666666665 -0.016Z" clip-rule="evenodd" stroke-width="1"></path></svg>