<svg xmlns="http://www.w3.org/2000/svg" fill="none" viewBox="0 0 128 128" id="Social-Media-Twitter--Streamline-Freehand.svg" height="128" width="128"><desc>Social Media Twitter Streamline Icon: https://streamlinehq.com</desc><path fill="#020202" d="M108.62719999999999 39.14853333333333c0.022933333333333333 0.014986666666666665 0.042666666666666665 0.033813333333333334 0.0608 0.048159999999999994l-0.0608 -0.048159999999999994Z" stroke-width="1"></path><path fill="#020202" d="M108.688 39.19669333333333c0.0096 0.007306666666666666 0.018666666666666665 0.014613333333333332 0.027733333333333332 0.02176 0.034133333333333335 0.02725333333333333 0.06613333333333332 0.05322666666666666 0.11146666666666666 0.07802666666666666l-0.1392 -0.09978666666666666Z" stroke-width="1"></path><path fill="#020202" fill-rule="evenodd" d="M6.007413333333333 56.80426666666666c2.2395733333333334 0.944 4.519413333333333 1.6474666666666666 6.838986666666667 2.1514666666666664 -1.5996799999999998 -1.5957333333333334 -3.0797866666666662 -3.3434666666666666 -4.39952 -5.210666666666667C4.367701333333333 48.085973333333335 1.648384 41.351306666666666 0.08869813333333333 34.68864c-0.35992746666666664 -1.6076799999999998 0.3997637333333333 -3.263253333333333 1.8394725333333333 -4.067093333333333 1.439712 -0.7998399999999999 3.199749333333333 -0.5519466666666666 4.399509333333333 0.6077866666666667 1.3597333333333332 1.3357333333333332 2.918986666666666 2.4474666666666662 4.558666666666666 3.4392533333333333 0.16981333333333332 0.10437333333333333 0.35450666666666664 0.20869333333333331 0.5360533333333333 0.3112533333333333 0.11765333333333333 0.06650666666666666 0.23402666666666666 0.13221333333333332 0.3441066666666666 0.19674666666666665 -0.3198933333333333 -1.83168 -0.52 -3.6793066666666663 -0.6399999999999999 -5.5389333333333335 -0.3598933333333333 -6.834666666666667 0.7597866666666666 -13.821173333333334 1.91952 -20.571839999999998 0.24 -1.61168 1.5598933333333334 -2.847413333333333 3.1995733333333334 -3.03136 1.5996799999999998 -0.18394666666666665 3.1591466666666665 0.7317333333333332 3.758986666666667 2.2434666666666665l2.4394666666666662 4.834933333333333c4.439093333333333 7.594506666666666 10.918186666666665 13.741493333333333 18.39669333333333 18.508533333333332 6.6786666666666665 4.271146666666667 14.116586666666667 7.450293333333333 21.554986666666665 9.505866666666666 0.27999999999999997 -1.8036266666666665 0.7205333333333332 -3.5871999999999997 1.2799999999999998 -5.314826666666667 1 -2.891413333333333 2.3594666666666666 -5.630773333333334 4.238933333333333 -8.054293333333334 3.6794666666666664 -4.819039999999999 8.8384 -8.590293333333332 14.557333333333332 -10.41392 5.758933333333333 -1.8516266666666665 12.077333333333332 -1.75584 17.876266666666666 1.2155733333333334 0.011199999999999998 0.005599999999999999 0.022399999999999996 0.011253333333333332 0.0336 0.017066666666666667 1.6229333333333333 0.7865066666666666 2.8533333333333335 1.5807466666666665 3.8864 2.3473066666666664 0.8794666666666666 0.67984 1.5989333333333333 1.3518933333333332 2.238933333333333 2.003733333333333l0.12 -0.04805333333333334c3.0394666666666663 -1.1677866666666665 10.037866666666666 -3.7232000000000003 13.237333333333334 -4.866986666666667 0.72 -0.25994666666666666 1.2394666666666665 -0.448 1.4794666666666665 -0.536 2.6794666666666664 -0.90784 3.3999999999999995 2.5796266666666665 3.3999999999999995 2.6596266666666666 -0.44 3.2953599999999996 -2.16 7.242559999999999 -4.599466666666666 10.861813333333332 -1.1994666666666665 1.77568 -2.5594666666666663 3.4673066666666665 -4.038933333333333 4.958986666666666 5.118933333333333 2.019573333333333 8.277866666666666 4.5791466666666665 9.877866666666666 6.110826666666666 0.72 0.7158933333333333 1.1594666666666666 1.2797333333333332 1.3594666666666666 1.5516799999999997 1.8794666666666666 2.6394666666666664 -0.8394666666666667 4.5510399999999995 -1.1594666666666666 4.710986666666667l-8.718399999999999 3.52736c8.238399999999999 19.08 4.478933333333333 36.828266666666664 -5.9589333333333325 50.101866666666666 -7.3984 9.466133333333332 -18.276266666666665 16.66453333333333 -30.6336 20.336 -8.6784 2.5914666666666664 -18.0768 3.4271999999999996 -27.474666666666668 2.123733333333333 -18.598879999999998 -2.5824 -37.2376 -13.4896 -49.953376 -35.87413333333333 -0.3678186666666666 -0.52 -0.479536 -1.2026666666666666 -0.236304 -1.8474666666666666 0.22413333333333332 -0.6624 0.7584586666666666 -1.1312 1.3904799999999997 -1.3002666666666665 0.07808 -0.021333333333333333 0.15686933333333333 -0.03733333333333333 0.23596266666666665 -0.04906666666666666 0.3156213333333333 -0.04533333333333334 0.6479839999999999 -0.018666666666666665 0.9731573333333332 0.09333333333333334 5.238933333333333 1.752 10.917333333333334 2.915733333333333 16.556213333333332 3.147733333333333 5.598879999999999 0.23199999999999998 11.158133333333334 -0.456 16.357066666666665 -2.3717333333333332 1.1997333333333333 -0.43946666666666667 2.4791999999999996 -1.0517333333333332 3.7189866666666664 -1.7914666666666665 -1.5197333333333332 -0.032 -2.999413333333333 -0.152 -4.479093333333333 -0.3237333333333333 -4.87904 -0.5722666666666667 -9.638133333333332 -1.92 -14.077226666666665 -3.8912 -4.479093333333333 -1.96 -8.63824 -4.555199999999999 -12.437439999999999 -7.634666666666666 -2.2395733333333334 -1.8234666666666666 -4.4790399999999995 -3.7871999999999995 -6.398629333333333 -6.022933333333333 -1.3597279999999998 -1.6394666666666666 -2.559392 -3.4271999999999996 -3.399221333333333 -5.398933333333333 -0.5598879999999999 -1.2474666666666665 -0.2797653333333333 -2.6954666666666665 0.6800373333333334 -3.6554666666666664 0.959808 -0.9594666666666667 2.4391999999999996 -1.2351999999999999 3.678933333333333 -0.6954666666666666Zm4.037493333333333 34.25279999999999c18.76597333333333 26.105066666666666 46.40042666666666 31.302933333333332 68.70815999999999 24.236266666666666 10.797866666666666 -3.415466666666666 20.355733333333333 -9.6464 26.954666666666668 -17.936533333333333 9.517866666666666 -11.989333333333335 12.797333333333334 -28.206400000000002 4.358933333333333 -45.79861333333333 -0.39999999999999997 -0.8598399999999999 -0.44 -1.8596266666666665 -0.039999999999999994 -2.739466666666667 0.36 -0.87584 1.1199999999999999 -1.5476266666666665 2.0394666666666668 -1.835573333333333l7.118933333333333 -2.6515733333333333c-2.0394666666666668 -1.4836799999999999 -5.039466666666666 -3.17136 -9.1984 -4.3950933333333335 -0.48 -0.144 -1.3194666666666666 -0.7479466666666666 -1.3594666666666666 -0.7879466666666667 -0.6399999999999999 -0.5518933333333333 -1 -1.3635199999999998 -0.96 -2.21536 0.039999999999999994 -0.92784 0.4794666666666666 -1.7838933333333333 1.2794666666666665 -2.2917866666666664 2.4794666666666663 -1.5596799999999997 4.879466666666667 -4.011146666666667 6.838933333333333 -6.698613333333332 1.04 -1.4157333333333333 1.9194666666666667 -2.887253333333333 2.6394666666666664 -4.338986666666666 -3.4794666666666663 1.1237866666666667 -7.9984 2.6074666666666664 -10.277866666666666 3.3953066666666665 -0.6405333333333333 0.2150933333333333 -1.4330666666666665 0.6460266666666666 -2.12 0.6717866666666665 -0.6794666666666667 0.019946666666666665 -1.2794666666666665 -0.252 -1.7189333333333332 -0.7479466666666666 -0.72 -0.8637866666666666 -1.48 -1.7754666666666665 -2.5999999999999996 -2.7033066666666667 -0.8394666666666667 -0.65584 -1.8394666666666666 -1.3237333333333332 -3.159466666666667 -1.9995733333333332 -0.011733333333333333 -0.005653333333333333 -0.022933333333333333 -0.011359999999999999 -0.034666666666666665 -0.017173333333333332 -4.7888 -2.2386666666666666 -9.894933333333332 -2.119413333333333 -14.562666666666667 -0.4557333333333333 -4.678933333333333 1.6876266666666666 -8.917866666666665 4.9872 -11.837333333333333 9.114346666666666 -1.4394666666666665 2.0036266666666664 -2.4794666666666663 4.259146666666666 -3.159466666666667 6.6146666666666665 -0.72 2.38352 -1.08 4.882986666666667 -1.08 7.354453333333333 -0.039999999999999994 0.8638399999999999 -0.43946666666666667 1.6676266666666666 -1.1194666666666666 2.1995199999999997 -0.6794666666666667 0.5318933333333333 -1.5599999999999998 0.73184 -2.3994666666666666 0.5518933333333333 -9.238399999999999 -1.8636266666666668 -18.636426666666665 -5.302826666666666 -26.99477333333333 -10.345813333333332 -7.238506666666667 -4.347146666666666 -13.636800000000001 -9.898186666666666 -18.555786666666666 -16.60485333333333 -0.2799466666666667 2.8794666666666666 -0.40015999999999996 5.758826666666666 -0.2402133333333333 8.614239999999999 0.23994666666666667 3.919253333333333 0.9599466666666667 7.786666666666666 2.6396266666666666 11.48992 0.67984 1.4116799999999998 0.35968 3.0793066666666666 -0.7201066666666667 4.179093333333333 -1.1197333333333332 1.0997866666666667 -2.7591466666666666 1.4037333333333333 -4.198826666666666 0.7598400000000001 -1.8396266666666667 -0.8398399999999999 -3.71936 -1.6995733333333334 -5.598986666666666 -2.63936 1.0397866666666666 2.2755199999999998 2.2792 4.462933333333333 3.678933333333333 6.49456 3.31936 4.699146666666667 7.678773333333333 8.574346666666667 13.317653333333332 10.581813333333333 1.5996799999999998 0.5599999999999999 2.5593066666666666 2.179733333333333 2.3193599999999996 3.8554666666666666 -0.23994666666666667 1.6794666666666667 -1.63952 2.942933333333333 -3.3191466666666667 3.0192 -3.9992 0.1317333333333333 -7.95824 -0.064 -11.837493333333331 -0.6997333333333333 -0.3998933333333333 -0.06826666666666667 -0.7599999999999999 -0.13599999999999998 -1.1598933333333332 -0.21173333333333333 0.4291733333333333 0.3946666666666666 0.8787733333333333 0.7834666666666666 1.3195733333333333 1.1642666666666666 0.17530666666666667 0.15146666666666667 0.34922666666666663 0.3018666666666666 0.5198933333333333 0.45119999999999993 3.279306666666667 2.8154666666666666 6.918453333333333 5.210666666666667 10.837653333333332 7.046399999999999 3.8792 1.8314666666666666 8.038666666666666 3.123733333333333 12.317813333333334 3.7312 1.8796266666666668 0.26826666666666665 3.7594133333333333 0.43626666666666664 5.63904 0.4202666666666666 1.7996266666666667 -0.012266666666666665 3.639146666666666 -0.18826666666666664 5.398773333333333 -0.624 1.0797866666666667 -0.27999999999999997 2.2394666666666665 0.144 2.8793066666666665 1.0597333333333332 0.6398933333333333 0.9157333333333333 0.6398933333333333 2.1354666666666664 0 3.063466666666667 -1.3597333333333332 1.9754666666666667 -3.359413333333333 3.7829333333333333 -5.598933333333333 5.262933333333333 -2.1195733333333333 1.4277333333333333 -4.4792 2.5674666666666663 -6.598773333333334 3.287466666666666 -5.838826666666667 1.9754666666666667 -12.077386666666666 2.5834666666666664 -18.276106666666664 2.1674666666666664 -4.065226666666666 -0.2773333333333333 -8.148693333333332 -0.9935999999999999 -12.079413333333331 -2.048Z" clip-rule="evenodd" stroke-width="1"></path></svg>