<svg xmlns="http://www.w3.org/2000/svg" fill="none" viewBox="0 0 14 14" id="Bullet-List--Streamline-Core.svg"><desc>Bullet List Streamline Icon: https://streamlinehq.com</desc><g id="bullet-list--points-bullet-unordered-list-lists-bullets"><path id="Union" fill="#2859c5" fill-rule="evenodd" d="M0.5 1.5c0 -0.552285 0.447715 -1 1 -1 0.55228 0 1 0.447715 1 1 0 0.55228 -0.44772 1 -1 1 -0.552285 0 -1 -0.44772 -1 -1ZM0.5 7c0 -0.55228 0.447715 -1 1 -1 0.55228 0 1 0.44772 1 1s-0.44772 1 -1 1c-0.552285 0 -1 -0.44772 -1 -1Zm1 4.5c-0.552285 0 -1 0.4477 -1 1s0.447715 1 1 1c0.55228 0 1 -0.4477 1 -1s-0.44772 -1 -1 -1Z" clip-rule="evenodd" stroke-width="1"></path><path id="Union_2" fill="#8fbffa" fill-rule="evenodd" d="M4.5 1.5c0 -0.41421 0.33579 -0.75 0.75 -0.75h7.5c0.4142 0 0.75 0.33579 0.75 0.75s-0.3358 0.75 -0.75 0.75h-7.5c-0.41421 0 -0.75 -0.33579 -0.75 -0.75Zm0 5.5c0 -0.41421 0.33579 -0.75 0.75 -0.75h7.5c0.4142 0 0.75 0.33579 0.75 0.75s-0.3358 0.75 -0.75 0.75h-7.5c-0.41421 0 -0.75 -0.33579 -0.75 -0.75Zm0.75 4.75c-0.41421 0 -0.75 0.3358 -0.75 0.75s0.33579 0.75 0.75 0.75h7.5c0.4142 0 0.75 -0.3358 0.75 -0.75s-0.3358 -0.75 -0.75 -0.75h-7.5Z" clip-rule="evenodd" stroke-width="1"></path></g></svg>