<svg xmlns="http://www.w3.org/2000/svg" fill="none" viewBox="0 0 14 14" id="Typewriter--Streamline-Core.svg"><desc>Typewriter Streamline Icon: https://streamlinehq.com</desc><g id="typewriter--typewriter-company-office-supplies-work"><path id="Union" fill="#8fbffa" fill-rule="evenodd" d="M4.06 0.63C3.2481 0.63 2.59 1.2881 2.59 2.1V7.49C2.59 7.7606 2.8094 7.98 3.08 7.98H10.92C11.1906 7.98 11.41 7.7606 11.41 7.49V2.1C11.41 1.2881 10.7518 0.63 9.94 0.63H4.06Z" clip-rule="evenodd" stroke-width="1"></path><path id="Union_2" fill="#2859c5" fill-rule="evenodd" d="M2.59 5.04H5.285C5.5556 5.04 5.775 5.2594 5.775 5.53C5.775 6.2066 6.3235 6.755 7 6.755S8.225 6.2066 8.225 5.53C8.225 5.2594 8.4444 5.04 8.715 5.04H11.41C12.1383 5.04 12.743 5.5698 12.8597 6.265H13.125C13.5309 6.265 13.86 6.5941 13.86 7S13.5309 7.735 13.125 7.735H12.88V8.3543L13.8083 10.2109C13.8423 10.2789 13.86 10.3539 13.86 10.43V11.9C13.86 12.7118 13.2018 13.37 12.39 13.37H1.61C0.7981 13.37 0.14 12.7118 0.14 11.9V10.43C0.14 10.3539 0.1577 10.2789 0.1917 10.2109L1.12 8.3543V7.735H0.875C0.4691 7.735 0.14 7.4059 0.14 7S0.4691 6.265 0.875 6.265H1.1403C1.257 5.5698 1.8616 5.04 2.59 5.04Z" clip-rule="evenodd" stroke-width="1"></path><path id="Union_3" fill="#8fbffa" fill-rule="evenodd" d="M3.57 8.3475C3.2317 8.3475 2.9575 8.6217 2.9575 8.96S3.2317 9.5725 3.57 9.5725H4.55C4.8883 9.5725 5.1625 9.2983 5.1625 8.96S4.8883 8.3475 4.55 8.3475H3.57ZM3.57 10.7975C3.2317 10.7975 2.9575 11.0717 2.9575 11.41S3.2317 12.0225 3.57 12.0225H10.43C10.7683 12.0225 11.0425 11.7483 11.0425 11.41S10.7683 10.7975 10.43 10.7975H3.57ZM5.8975 8.96C5.8975 8.6217 6.1717 8.3475 6.51 8.3475H7.49C7.8283 8.3475 8.1025 8.6217 8.1025 8.96S7.8283 9.5725 7.49 9.5725H6.51C6.1717 9.5725 5.8975 9.2983 5.8975 8.96ZM9.45 8.3475C9.1117 8.3475 8.8375 8.6217 8.8375 8.96S9.1117 9.5725 9.45 9.5725H10.43C10.7683 9.5725 11.0425 9.2983 11.0425 8.96S10.7683 8.3475 10.43 8.3475H9.45Z" clip-rule="evenodd" stroke-width="1"></path></g></svg>