<svg xmlns="http://www.w3.org/2000/svg" fill="none" viewBox="0 0 14 14" id="Cashing-Check--Streamline-Core.svg"><desc>Cashing Check Streamline Icon: https://streamlinehq.com</desc><g id="cashing-check--cashing-check-cheques-money-currency-payment-finance"><path id="Union" fill="#8fbffa" fill-rule="evenodd" d="M2 5C1.17157 5 0.5 5.67157 0.5 6.5V12c0 0.8284 0.67157 1.5 1.5 1.5h10c0.8284 0 1.5 -0.6716 1.5 -1.5V6.5c0 -0.82843 -0.6716 -1.5 -1.5 -1.5H2Z" clip-rule="evenodd" stroke-width="1"></path><path id="Union_2" fill="#2859c5" fill-rule="evenodd" d="M9.79413 0.573223C9.74722 0.526312 9.68358 0.499971 9.61724 0.5c-0.06634 0.000029 -0.12995 0.026426 -0.17682 0.073378L4.10394 5.91922c-0.03828 0.03835 -0.06307 0.0881 -0.07063 0.14176l-0.28086 1.99415c-0.01093 0.07755 0.01512 0.15574 0.07037 0.21124 0.05525 0.0555 0.13331 0.08191 0.21091 0.07135l1.99416 -0.27151c0.05415 -0.00737 0.1044 -0.03229 0.14305 -0.07094l5.34586 -5.34584c0.0976 -0.09763 0.0976 -0.25592 0 -0.35355L9.79413 0.573223Z" clip-rule="evenodd" stroke-width="1"></path><path id="Union_3" fill="#2859c5" fill-rule="evenodd" d="M8.5 8.375c-0.34518 0 -0.625 0.27982 -0.625 0.625s0.27982 0.625 0.625 0.625H11c0.3452 0 0.625 -0.27982 0.625 -0.625s-0.2798 -0.625 -0.625 -0.625H8.5Zm-3 2.25c-0.34518 0 -0.625 0.2798 -0.625 0.625s0.27982 0.625 0.625 0.625H11c0.3452 0 0.625 -0.2798 0.625 -0.625s-0.2798 -0.625 -0.625 -0.625H5.5Z" clip-rule="evenodd" stroke-width="1"></path></g></svg>