<svg xmlns="http://www.w3.org/2000/svg" fill="none" viewBox="0 0 14 14" id="Youtube-Logo--Streamline-Core.svg"><desc>Youtube Logo Streamline Icon: https://streamlinehq.com</desc><g id="youtube--youtube-clip-social-video"><path id="Union" fill="#8fbffa" fill-rule="evenodd" d="M2.5 1C1.11929 1 0 2.11929 0 3.5v7C0 11.8807 1.11929 13 2.5 13h9c1.3807 0 2.5 -1.1193 2.5 -2.5v-7C14 2.11929 12.8807 1 11.5 1h-9Z" clip-rule="evenodd" stroke-width="1"></path><path id="Union_2" fill="#2859c5" fill-rule="evenodd" d="M5.06024 5.12326c-0.01172 -0.50377 0.55343 -0.82457 0.97988 -0.5569l3.59609 2.09771 0.00054 0.00032c0.42335 0.24837 0.42335 0.87289 0 1.12125l-0.00054 0.00032 -3.6 2.1 -0.00096 0.00056c-0.43293 0.24998 -0.97501 -0.07342 -0.97501 -0.5665V5.12326Z" clip-rule="evenodd" stroke-width="1"></path></g></svg>