<svg xmlns="http://www.w3.org/2000/svg" fill="none" viewBox="0 0 14 14" id="Youtube-Logo--Streamline-Core.svg" height="14" width="14"><desc>Youtube Logo Streamline Icon: https://streamlinehq.com</desc><g id="youtube--youtube-clip-social-video"><path id="Subtract" fill="#1d4ed8" fill-rule="evenodd" d="M0 3.5C0 2.11929 1.11929 1 2.5 1h9C12.8807 1 14 2.11929 14 3.5v7c0 1.3807 -1.1193 2.5 -2.5 2.5h-9C1.11929 13 0 11.8807 0 10.5v-7Zm6.04013 1.06631c-0.42645 -0.26766 -0.9916 0.05314 -0.97988 0.55691v4.19675c0 0.49309 0.54208 0.81653 0.97501 0.5665l0.00095 -0.00055 3.6 -2.1 0.00055 -0.00032c0.42334 -0.24837 0.42334 -0.87289 0 -1.12125l-0.00055 -0.00032 -3.59608 -2.09772Z" clip-rule="evenodd" stroke-width="1"></path></g></svg>