<?xml version="1.0" standalone="no"?>
<!DOCTYPE svg PUBLIC "-//W3C//DTD SVG 20010904//EN"
 "http://www.w3.org/TR/2001/REC-SVG-20010904/DTD/svg10.dtd">
<svg version="1.0" xmlns="http://www.w3.org/2000/svg"
 width="96.000000pt" height="96.000000pt" viewBox="0 0 96.000000 96.000000"
 preserveAspectRatio="xMidYMid meet">

<g transform="translate(0.000000,96.000000) scale(0.100000,-0.100000)"
fill="#000000" stroke="none">
<path d="M76 741 c-38 -38 -57 -65 -54 -77 5 -29 37 -28 69 2 l29 28 0 -215
c0 -327 -7 -320 330 -317 l225 3 0 25 0 25 -225 3 c-296 3 -270 -22 -270 261
l0 215 29 -28 c32 -30 64 -31 69 -2 5 22 -103 136 -128 136 -9 0 -42 -26 -74
-59z"/>
<path d="M284 765 c-4 -8 -4 -22 0 -30 4 -13 39 -15 229 -15 293 0 267 25 267
-260 l0 -214 -29 28 c-32 30 -64 31 -69 2 -5 -22 103 -136 128 -136 25 0 133
114 128 136 -5 29 -37 28 -69 -2 l-29 -28 0 220 c0 322 8 314 -330 314 -187 0
-222 -2 -226 -15z"/>
</g>
</svg>
