<?xml version="1.0" standalone="no"?>
<!DOCTYPE svg PUBLIC "-//W3C//DTD SVG 20010904//EN"
 "http://www.w3.org/TR/2001/REC-SVG-20010904/DTD/svg10.dtd">
<svg version="1.0" xmlns="http://www.w3.org/2000/svg"
 width="500.000000pt" height="519.000000pt" viewBox="0 0 500.000000 519.000000"
 preserveAspectRatio="xMidYMid meet">

<g transform="translate(0.000000,519.000000) scale(0.100000,-0.100000)"
fill="#000000" stroke="none">
<path d="M2136 5175 c-134 -34 -267 -139 -326 -258 -17 -34 -37 -97 -46 -139
-14 -71 -14 -91 1 -240 20 -194 55 -391 91 -508 45 -150 142 -383 244 -590
l99 -200 -857 0 c-939 0 -931 0 -1057 -60 -197 -94 -312 -320 -277 -545 24
-151 103 -290 217 -378 l54 -41 -25 -41 c-103 -166 -113 -365 -26 -543 30 -63
110 -154 171 -196 40 -28 40 -29 26 -57 -30 -57 -47 -160 -42 -244 12 -168 96
-319 224 -404 l46 -30 -2 -98 c-1 -66 4 -116 15 -153 53 -181 193 -320 379
-377 56 -17 109 -18 760 -18 871 0 772 -12 1377 166 l336 98 499 3 498 3 52
27 c258 137 423 666 423 1360 0 618 -134 1010 -388 1135 l-76 38 -158 5 -158
5 -57 71 c-140 173 -525 599 -741 819 -445 454 -610 686 -761 1070 -95 239
-186 317 -386 330 -44 3 -92 -1 -129 -10z"/>
</g>
</svg>
